<svg width="20" height="20" viewBox="0 0 20 20" fill="none" xmlns="http://www.w3.org/2000/svg">
<path d="M7.71 9.29C7.5217 9.1017 7.2663 8.99591 7 8.99591C6.7337 8.99591 6.47831 9.1017 6.29 9.29C6.1017 9.4783 5.99591 9.7337 5.99591 10C5.99591 10.2663 6.1017 10.5217 6.29 10.71L9.29 13.71C9.38344 13.8027 9.49426 13.876 9.6161 13.9258C9.73793 13.9755 9.8684 14.0008 10 14C10.1369 13.9957 10.2714 13.9632 10.3953 13.9048C10.5192 13.8463 10.6297 13.763 10.72 13.66L17.72 5.66C17.8816 5.45933 17.9596 5.20401 17.9375 4.94728C17.9155 4.69056 17.7953 4.45223 17.6018 4.28201C17.4084 4.11179 17.1567 4.0228 16.8993 4.0336C16.6418 4.04441 16.3985 4.15417 16.22 4.34L10 11.54L7.71 9.29Z" fill="black"/>
<path d="M19 9C18.7348 9 18.4804 9.10536 18.2929 9.29289C18.1054 9.48043 18 9.73478 18 10C18 12.1217 17.1571 14.1566 15.6569 15.6569C14.1566 17.1571 12.1217 18 10 18C8.42008 17.9993 6.87576 17.5308 5.56176 16.6535C4.24776 15.7763 3.22292 14.5297 2.61648 13.0708C2.01003 11.6119 1.84914 10.0061 2.15408 8.45589C2.45903 6.90569 3.21616 5.48049 4.33 4.36C5.0707 3.60938 5.95368 3.01404 6.92725 2.60881C7.90083 2.20358 8.94546 1.99661 10 2C10.6394 2.004 11.2766 2.07777 11.9 2.22C12.0305 2.26035 12.1678 2.27356 12.3036 2.2588C12.4393 2.24404 12.5706 2.20163 12.6894 2.13418C12.8081 2.06673 12.9118 1.97567 12.994 1.86662C13.0762 1.75757 13.1352 1.63284 13.1674 1.50011C13.1995 1.36739 13.2042 1.22948 13.181 1.0949C13.1578 0.960317 13.1073 0.831909 13.0326 0.717592C12.9579 0.603274 12.8605 0.505471 12.7466 0.430211C12.6326 0.354952 12.5045 0.303831 12.37 0.28C11.5931 0.0972427 10.798 0.00330743 10 0C8.02433 0.0102635 6.09598 0.605521 4.45829 1.71065C2.8206 2.81578 1.54697 4.38126 0.798115 6.20953C0.0492634 8.0378 -0.141245 10.0469 0.250631 11.9834C0.642507 13.9198 1.59921 15.6968 3 17.09C4.85669 18.9475 7.37365 19.9939 10 20C12.6522 20 15.1957 18.9464 17.0711 17.0711C18.9464 15.1957 20 12.6522 20 10C20 9.73478 19.8946 9.48043 19.7071 9.29289C19.5196 9.10536 19.2652 9 19 9Z" fill="black"/>
</svg>
